<svg xmlns="http://www.w3.org/2000/svg" viewBox="0 0 100 140" width="100" height="140" preserveAspectRatio="xMidYMid meet">
  <title>蓝Done水杯</title>
  <defs><linearGradient id="cyan" x1="0" y1="0" x2=".25" y2="1"><stop stop-color="#67d3e9"/><stop offset=".68" stop-color="#67d3e9"/><stop offset="1" stop-color="#3eb3cf"/></linearGradient><radialGradient id="floor-shadow"><stop stop-color="#6486ad" stop-opacity=".2"/><stop offset=".5" stop-color="#6486ad" stop-opacity=".1"/><stop offset="1" stop-color="#6486ad" stop-opacity="0"/></radialGradient></defs>
  <ellipse cx="50.0" cy="134" rx="28.000000000000004" ry="1.8" fill="url(#floor-shadow)"/><g id="item-model" transform="translate(-6.220339 -4.610169) scale(1.050847)"><ellipse cx="81" cy="30" rx="9" ry="6" fill="url(#cyan)" /><ellipse cx="81" cy="30" rx="4.5" ry="2.5" fill="#f2faf9" /><path d="M32 33 C32 46 19 46 17 57 L17 119 Q17 130 30 130 L71 130 Q83 130 83 119 L83 57 C81 46 68 46 68 33Z" fill="url(#cyan)" /><rect x="30" y="15" width="40" height="20" rx="6" fill="url(#cyan)" /><ellipse cx="50" cy="16" rx="19" ry="4" fill="url(#cyan)" /><ellipse cx="43" cy="51" rx="12" ry="2" fill="#fff" opacity=".16"/><path d="M23 62 V109" fill="none" stroke="#c2f2ff" stroke-width="2.5" stroke-linecap="round" stroke-linejoin="round" opacity=".4"/><rect x="17" y="72" width="66" height="35" rx="2" fill="#3eb3cf" /><g transform="translate(25.500 80) scale(1.63333)"><g transform="translate(0 0)"><path d="M0 0 V10 H2 Q7 10 6 5 Q7 0 2 0Z" fill="none" stroke="#225774" stroke-width="1.7" stroke-linecap="round" stroke-linejoin="round" /></g><g transform="translate(8 0)"><path d="M3 0 C-1 0 -1 10 3 10 C7 10 7 0 3 0Z" fill="none" stroke="#225774" stroke-width="1.7" stroke-linecap="round" stroke-linejoin="round" /></g><g transform="translate(16 0)"><path d="M0 10 V0 L6 10 V0" fill="none" stroke="#225774" stroke-width="1.7" stroke-linecap="round" stroke-linejoin="round" /></g><g transform="translate(24 0)"><path d="M6 0 H0 V10 H6 M0 5 H5" fill="none" stroke="#225774" stroke-width="1.7" stroke-linecap="round" stroke-linejoin="round" /></g></g><rect x="24" y="120" width="52" height="3" rx="1.5" fill="#c2f2ff" opacity=".65"/></g>
</svg>