<svg xmlns="http://www.w3.org/2000/svg" viewBox="0 0 100 100" width="100%" height="100%">
  <defs>
    <!-- Common drop shadow for depth -->
    <filter id="shadow-frog_flower" x="-20%" y="-20%" width="140%" height="140%">
      <feDropShadow dx="0" dy="3" stdDeviation="2" flood-color="#000" flood-opacity="0.25"/>
    </filter>
    <radialGradient id="base-shadow" cx="50%" cy="50%" r="50%">
      <stop offset="0%" stop-color="#000" stop-opacity="0.32"/>
      <stop offset="100%" stop-color="#000" stop-opacity="0"/>
    </radialGradient>
    
    <radialGradient id="frog-skin-frog_flower" cx="40%" cy="35%" r="65%">
      <stop offset="0%" stop-color="#55efc4"/>
      <stop offset="100%" stop-color="#00b894"/>
    </radialGradient>
  
  </defs>
  <!-- Floor Contact Shadow -->
  <ellipse cx="50" cy="94" rx="34" ry="5.5" fill="url(#base-shadow)"/>
  <g filter="url(#shadow-frog_flower)">
    
    <!-- Frog Eyes Protrusions -->
    <circle cx="36" cy="34" r="10" fill="url(#frog-skin-frog_flower)" stroke="#222" stroke-width="1"/>
    <circle cx="64" cy="34" r="10" fill="url(#frog-skin-frog_flower)" stroke="#222" stroke-width="1"/>

    <!-- Frog Big Head / Body -->
    <ellipse cx="50" cy="56" rx="26" ry="22" fill="url(#frog-skin-frog_flower)" stroke="#222" stroke-width="1.2"/>
    <!-- Cream belly -->
    <ellipse cx="50" cy="64" rx="15" ry="11" fill="#e8f5e9" opacity="0.8"/>

    <!-- Eyes (Big and cute) -->
    <circle cx="36" cy="34" r="6" fill="#ffffff" stroke="#333" stroke-width="0.8"/>
    <circle cx="64" cy="34" r="6" fill="#ffffff" stroke="#333" stroke-width="0.8"/>
    <circle cx="37" cy="34" r="3.5" fill="#2d3436"/>
    <circle cx="63" cy="34" r="3.5" fill="#2d3436"/>
    <circle cx="35.5" cy="32.5" r="1.2" fill="#ffffff"/>
    <circle cx="61.5" cy="32.5" r="1.2" fill="#ffffff"/>

    <!-- Blush Cheeks -->
    <ellipse cx="32" cy="54" rx="3.5" ry="2" fill="#ff7675" opacity="0.6"/>
    <ellipse cx="68" cy="54" rx="3.5" ry="2" fill="#ff7675" opacity="0.6"/>

    <!-- Nostrils -->
    <circle cx="47" cy="48" r="0.8" fill="#2d3436"/>
    <circle cx="53" cy="48" r="0.8" fill="#2d3436"/>

    <!-- Wide Happy Smile -->
    <path d="M38,55 Q50,65 62,55" stroke="#2d3436" stroke-width="1.8" fill="none" stroke-linecap="round"/>

    <!-- Front Webbed Paws -->
    <circle cx="38" cy="74" r="4.5" fill="url(#frog-skin-frog_flower)" stroke="#222" stroke-width="0.8"/>
    <circle cx="62" cy="74" r="4.5" fill="url(#frog-skin-frog_flower)" stroke="#222" stroke-width="0.8"/>

    <!-- Accessory -->
    
      <!-- Waterlily Flower 🌸 -->
      <circle cx="64" cy="26" r="3.5" fill="#ff7675"/>
      <circle cx="70" cy="26" r="3.5" fill="#ff7675"/>
      <circle cx="67" cy="21" r="3.5" fill="#ff7675"/>
      <circle cx="67" cy="26" r="2.5" fill="#f1c40f"/>
    
  
  </g>
</svg>