<svg xmlns="http://www.w3.org/2000/svg" viewBox="16 12 68 84" width="100%" height="100%">
  <defs>
    <!-- Soft blur filter for realistic clay highlights & blush -->
    <filter id="clay-blur" x="-20%" y="-20%" width="140%" height="140%">
      <feGaussianBlur stdDeviation="1.2"/>
    </filter>
    <radialGradient id="clay-shadow" cx="50%" cy="50%" r="50%">
      <stop offset="0%" stop-color="#000" stop-opacity="0.26"/>
      <stop offset="60%" stop-color="#000" stop-opacity="0.10"/>
      <stop offset="100%" stop-color="#000" stop-opacity="0"/>
    </radialGradient>
    <radialGradient id="gloss-eye" cx="35%" cy="30%" r="65%">
      <stop offset="0%" stop-color="#37474f"/>
      <stop offset="60%" stop-color="#212121"/>
      <stop offset="100%" stop-color="#000000"/>
    </radialGradient>
    
    <linearGradient id="mitten-g-green_mitten" x1="0%" y1="0%" x2="100%" y2="100%">
      <stop offset="0%" stop-color="#a5d6a7"/>
      <stop offset="60%" stop-color="#43a047"/>
      <stop offset="100%" stop-color="#1b5e20"/>
    </linearGradient>
  
  </defs>
  <!-- Ambient Contact Floor Shadow -->
  <ellipse cx="50" cy="94" rx="26" ry="4.5" fill="url(#clay-shadow)"/>
  
    <path d="M32,46 C24,46 22,58 32,60 Z" fill="url(#mitten-g-green_mitten)"/>
    <path d="M30,36 C30,22 70,22 70,36 L70,74 C70,78 30,78 30,74 Z" fill="url(#mitten-g-green_mitten)"/>

    <g transform="translate(52, 48)">
      <line x1="-8" y1="0" x2="8" y2="0" stroke="#ffffff" stroke-width="1.8"/>
      <line x1="0" y1="-8" x2="0" y2="8" stroke="#ffffff" stroke-width="1.8"/>
      <line x1="-6" y1="-6" x2="6" y2="6" stroke="#ffffff" stroke-width="1.8"/>
      <line x1="-6" y1="6" x2="6" y2="-6" stroke="#ffffff" stroke-width="1.8"/>
      <circle cx="0" cy="0" r="1.5" fill="#ffffff"/>
    </g>

    <rect x="30" y="74" width="40" height="12" rx="3" fill="#ffe0b2"/>
  
</svg>