<svg xmlns="http://www.w3.org/2000/svg" viewBox="0 0 100 100" width="100%" height="100%">
  <defs>
    <!-- Common drop shadow for depth -->
    <filter id="shadow-jam_orange" x="-20%" y="-20%" width="140%" height="140%">
      <feDropShadow dx="0" dy="3" stdDeviation="2" flood-color="#000" flood-opacity="0.25"/>
    </filter>
    <radialGradient id="base-shadow" cx="50%" cy="50%" r="50%">
      <stop offset="0%" stop-color="#000" stop-opacity="0.32"/>
      <stop offset="100%" stop-color="#000" stop-opacity="0"/>
    </radialGradient>
    
    <linearGradient id="jam-liquid-jam_orange" x1="0%" y1="0%" x2="100%" y2="100%">
      <stop offset="0%" stop-color="#e67e22"/>
      <stop offset="100%" stop-color="#d35400"/>
    </linearGradient>
  
  </defs>
  <!-- Floor Contact Shadow -->
  <ellipse cx="50" cy="94" rx="34" ry="5.5" fill="url(#base-shadow)"/>
  <g filter="url(#shadow-jam_orange)">
    
    <!-- Glass Jar Body -->
    <rect x="28" y="44" width="44" height="42" rx="10" fill="url(#jam-liquid-jam_orange)" stroke="#222" stroke-width="1.2"/>

    <!-- Front White Label -->
    <rect x="34" y="55" width="32" height="26" rx="5" fill="#ffffff" stroke="#e0e0e0" stroke-width="0.8"/>
    
      <circle cx="50" cy="70" r="7.5" fill="#f39c12" stroke="#d35400" stroke-width="0.8"/>
      <circle cx="50" cy="70" r="6" fill="#e67e22"/>
      <line x1="50" y1="64" x2="50" y2="76" stroke="#fff" stroke-width="0.8"/>
      <line x1="44" y1="70" x2="56" y2="70" stroke="#fff" stroke-width="0.8"/>
    

    <!-- Jar Glass Glare -->
    <path d="M31,48 L31,80 Q34,84 37,84 L37,48 Z" fill="rgba(255,255,255,0.3)"/>

    <!-- Cloth Checkered Lid Overhang -->
    <path d="M22,38 Q50,30 78,38 L75,46 Q68,42 64,46 Q56,42 50,46 Q44,42 36,46 Q32,42 25,46 Z" fill="#e67e22" stroke="#222" stroke-width="1"/>

    <!-- Tied String Ribbon around Neck -->
    <line x1="26" y1="44" x2="74" y2="44" stroke="#d35400" stroke-width="2"/>
    <circle cx="50" cy="44" r="2.5" fill="#e67e22"/>
  
  </g>
</svg>