<svg xmlns="http://www.w3.org/2000/svg" viewBox="0 0 100 140" width="100" height="140" preserveAspectRatio="xMidYMid meet">
  <title>节日红蜡烛</title>
  <defs><radialGradient id="red" cx="30%" cy="22%" r="90%"><stop stop-color="#ffcac5"/><stop offset=".26" stop-color="#ff8b91"/><stop offset=".72" stop-color="#ff8b91"/><stop offset="1" stop-color="#e9677d"/></radialGradient><linearGradient id="red-linear" x1="0" y1="0" x2="1" y2=".75"><stop stop-color="#ffcac5"/><stop offset=".24" stop-color="#ff8b91"/><stop offset=".7" stop-color="#ff8b91"/><stop offset="1" stop-color="#e9677d"/></linearGradient><radialGradient id="pink" cx="30%" cy="22%" r="90%"><stop stop-color="#ffd6eb"/><stop offset=".26" stop-color="#f799c6"/><stop offset=".72" stop-color="#f799c6"/><stop offset="1" stop-color="#db70ab"/></radialGradient><radialGradient id="gold" cx="30%" cy="22%" r="90%"><stop stop-color="#fff0b9"/><stop offset=".26" stop-color="#f9d27b"/><stop offset=".72" stop-color="#f9d27b"/><stop offset="1" stop-color="#deae50"/></radialGradient><radialGradient id="floor-shadow"><stop stop-color="#9db9d8" stop-opacity=".12"/><stop offset=".6" stop-color="#9db9d8" stop-opacity=".05"/><stop offset="1" stop-color="#9db9d8" stop-opacity="0"/></radialGradient>
<filter id="object-shadow" filterUnits="userSpaceOnUse" x="-10" y="-10" width="120" height="164" color-interpolation-filters="sRGB"><feGaussianBlur in="SourceAlpha" stdDeviation=".55" result="soft-shadow"/><feOffset in="soft-shadow" dy="1.4" result="offset-shadow"/><feFlood flood-color="#96acce" flood-opacity=".14"/><feComposite in2="offset-shadow" operator="in"/><feMerge><feMergeNode/><feMergeNode in="SourceGraphic"/></feMerge></filter></defs>
  <ellipse cx="50.0" cy="139" rx="32.0" ry="2.7" fill="url(#floor-shadow)"/><g filter="url(#object-shadow)"><g id="item-model" transform="translate(-0.101010 -1.268687) scale(1.002020)"><rect x="15" y="43" width="70" height="90" rx="6" fill="url(#red)" /><ellipse cx="50" cy="44" rx="35" ry="7" fill="url(#red-linear)" /><path d="M15 43 Q50 52 85 43 V66 Q81 73 78 66 L78 56 Q74 50 69 55 V78 Q64 86 60 78 V60 Q56 54 52 62 V69 Q46 77 42 69 V60 Q36 56 33 63 V88 Q28 95 24 88 V58 Q19 54 15 59Z" fill="url(#pink)" /><path d="M50 44 L50 32" fill="none" stroke="#71543c" stroke-width="2" stroke-linecap="round" stroke-linejoin="round" /><path d="M50 9 C40 22 43 33 51 35 C62 32 60 20 50 9Z" fill="url(#gold)" /><path d="M51 22 Q45 32 51 33 Q55 29 51 22Z" fill="#fff5c9" /><path d="M22 83 V118" fill="none" stroke="#ffb5a6" stroke-width="2" stroke-linecap="round" stroke-linejoin="round" opacity=".6"/></g></g>
</svg>