<svg xmlns="http://www.w3.org/2000/svg" viewBox="0 0 100 100" width="100%" height="100%">
  <defs>
    <!-- Soft blur filter for realistic clay highlights & blush -->
    <filter id="clay-blur" x="-20%" y="-20%" width="140%" height="140%">
      <feGaussianBlur stdDeviation="1.2"/>
    </filter>
    <radialGradient id="clay-shadow" cx="50%" cy="50%" r="50%">
      <stop offset="0%" stop-color="#000" stop-opacity="0.26"/>
      <stop offset="60%" stop-color="#000" stop-opacity="0.10"/>
      <stop offset="100%" stop-color="#000" stop-opacity="0"/>
    </radialGradient>
    <radialGradient id="gloss-eye" cx="35%" cy="30%" r="65%">
      <stop offset="0%" stop-color="#37474f"/>
      <stop offset="60%" stop-color="#212121"/>
      <stop offset="100%" stop-color="#000000"/>
    </radialGradient>
    
    <linearGradient id="gnome-hat-xmas_gnome" x1="0%" y1="0%" x2="100%" y2="80%">
      <stop offset="0%" stop-color="#ff8a80"/>
      <stop offset="60%" stop-color="#e53935"/>
      <stop offset="100%" stop-color="#b71c1c"/>
    </linearGradient>
    <radialGradient id="beard-g" cx="40%" cy="30%" r="65%">
      <stop offset="0%" stop-color="#ffffff"/>
      <stop offset="70%" stop-color="#f5f7fa"/>
      <stop offset="100%" stop-color="#cfd8dc"/>
    </radialGradient>
    <radialGradient id="nose-g" cx="35%" cy="30%" r="60%">
      <stop offset="0%" stop-color="#ffe0b2"/>
      <stop offset="70%" stop-color="#ffcc80"/>
      <stop offset="100%" stop-color="#ffa726"/>
    </radialGradient>
  
  </defs>
  <!-- Ambient Contact Floor Shadow -->
  <ellipse cx="50" cy="94" rx="26" ry="4.5" fill="url(#clay-shadow)"/>
  
    <ellipse cx="40" cy="88" rx="8" ry="4.5" fill="#d32f2f"/>
    <ellipse cx="60" cy="88" rx="8" ry="4.5" fill="#d32f2f"/>

    <ellipse cx="50" cy="74" rx="20" ry="16" fill="#43a047"/>

    <path d="M30,55 C22,68 32,86 50,86 C68,86 78,68 70,55 Z" fill="url(#beard-g)"/>

    <ellipse cx="50" cy="55" rx="6.5" ry="5.2" fill="url(#nose-g)"/>
    <ellipse cx="48.5" cy="53.5" r="1.5" fill="#ffffff" opacity="0.6"/>

    <rect x="25" y="47" width="50" height="9" rx="4.5" fill="#ffffff"/>
    <rect x="25" y="47" width="50" height="9" rx="4.5" fill="#cfd8dc" opacity="0.3"/>

    <path d="M29,48 C34,26 50,14 74,10 C82,8 86,16 80,24 C72,28 65,40 71,48 Z" fill="url(#gnome-hat-xmas_gnome)"/>

    <circle cx="82" cy="14" r="5" fill="#ffffff"/>
    <circle cx="82" cy="14" r="5" fill="#cfd8dc" opacity="0.3"/>
  
</svg>